<svg xmlns="http://www.w3.org/2000/svg" xmlns:xlink="http://www.w3.org/1999/xlink" width="500" zoomAndPan="magnify" viewBox="0 0 375 374.999991" height="500" preserveAspectRatio="xMidYMid meet" version="1.0"><defs><g/><clipPath id="5fb9ec2bc7"><path d="M 0 87.03125 L 180.75 87.03125 L 180.75 159.03125 L 0 159.03125 Z M 0 87.03125 " clip-rule="nonzero"/></clipPath><clipPath id="3ed6999e63"><path d="M 45 87.03125 L 136 87.03125 L 136 159.03125 L 45 159.03125 Z M 45 87.03125 " clip-rule="nonzero"/></clipPath><clipPath id="e90c224d3a"><path d="M 330.832031 148.460938 L 352.535156 148.460938 L 352.535156 170.164062 L 330.832031 170.164062 Z M 330.832031 148.460938 " clip-rule="nonzero"/></clipPath><clipPath id="b4de26f069"><path d="M 341.683594 148.460938 C 335.691406 148.460938 330.832031 153.320312 330.832031 159.3125 C 330.832031 165.308594 335.691406 170.164062 341.683594 170.164062 C 347.679688 170.164062 352.535156 165.308594 352.535156 159.3125 C 352.535156 153.320312 347.679688 148.460938 341.683594 148.460938 Z M 341.683594 148.460938 " clip-rule="nonzero"/></clipPath></defs><g fill="#d80e51" fill-opacity="1"><g transform="translate(35.139183, 239.168448)"><g><path d="M 49.71875 -12.625 C 51.582031 -12.625 53.144531 -12.03125 54.40625 -10.84375 C 55.664062 -9.65625 56.296875 -8.125 56.296875 -6.25 C 56.296875 -4.457031 55.664062 -2.96875 54.40625 -1.78125 C 53.144531 -0.59375 51.582031 0 49.71875 0 L 14.671875 0 C 12.796875 0 11.226562 -0.628906 9.96875 -1.890625 C 8.71875 -3.148438 8.09375 -4.710938 8.09375 -6.578125 L 8.09375 -68.90625 C 8.09375 -70.78125 8.738281 -72.34375 10.03125 -73.59375 C 11.320312 -74.851562 12.972656 -75.484375 14.984375 -75.484375 C 16.785156 -75.484375 18.332031 -74.851562 19.625 -73.59375 C 20.914062 -72.34375 21.5625 -70.78125 21.5625 -68.90625 L 21.5625 -12.625 Z M 49.71875 -12.625 "/></g></g></g><g fill="#d80e51" fill-opacity="1"><g transform="translate(89.489462, 239.168448)"><g><path d="M 60.9375 -71.828125 C 63.164062 -70.671875 64.28125 -68.835938 64.28125 -66.328125 C 64.28125 -64.816406 63.738281 -63.34375 62.65625 -61.90625 C 61.507812 -60.394531 60.035156 -59.640625 58.234375 -59.640625 C 57.015625 -59.640625 55.789062 -59.960938 54.5625 -60.609375 C 51.039062 -62.265625 47.234375 -63.09375 43.140625 -63.09375 C 38.109375 -63.09375 33.722656 -62.03125 29.984375 -59.90625 C 26.242188 -57.78125 23.363281 -54.796875 21.34375 -50.953125 C 19.332031 -47.109375 18.328125 -42.707031 18.328125 -37.75 C 18.328125 -29.257812 20.609375 -22.820312 25.171875 -18.4375 C 29.742188 -14.050781 35.734375 -11.859375 43.140625 -11.859375 C 47.523438 -11.859375 51.332031 -12.6875 54.5625 -14.34375 C 55.863281 -14.914062 57.015625 -15.203125 58.015625 -15.203125 C 59.890625 -15.203125 61.472656 -14.410156 62.765625 -12.828125 C 63.835938 -11.460938 64.375 -9.988281 64.375 -8.40625 C 64.375 -7.257812 64.085938 -6.21875 63.515625 -5.28125 C 62.941406 -4.34375 62.117188 -3.625 61.046875 -3.125 C 55.429688 -0.320312 49.460938 1.078125 43.140625 1.078125 C 36.085938 1.078125 29.613281 -0.410156 23.71875 -3.390625 C 17.820312 -6.378906 13.113281 -10.785156 9.59375 -16.609375 C 6.070312 -22.429688 4.3125 -29.476562 4.3125 -37.75 C 4.3125 -45.082031 5.984375 -51.660156 9.328125 -57.484375 C 12.671875 -63.304688 17.289062 -67.851562 23.1875 -71.125 C 29.082031 -74.394531 35.734375 -76.03125 43.140625 -76.03125 C 49.535156 -76.03125 55.46875 -74.628906 60.9375 -71.828125 Z M 60.9375 -71.828125 "/></g></g></g><g fill="#d80e51" fill-opacity="1"><g transform="translate(150.849246, 239.168448)"><g/></g></g><g fill="#d80e51" fill-opacity="1"><g transform="translate(174.789064, 239.168448)"><g><path d="M 31.921875 -47.875 C 35.878906 -47.738281 39.382812 -46.59375 42.4375 -44.4375 C 45.488281 -42.28125 47.84375 -39.457031 49.5 -35.96875 C 51.15625 -32.476562 51.984375 -28.753906 51.984375 -24.796875 C 51.984375 -19.554688 50.796875 -14.972656 48.421875 -11.046875 C 46.046875 -7.128906 42.703125 -4.128906 38.390625 -2.046875 C 34.078125 0.0351562 29.046875 1.078125 23.296875 1.078125 C 20.703125 1.078125 18.109375 0.753906 15.515625 0.109375 C 12.929688 -0.535156 10.671875 -1.398438 8.734375 -2.484375 C 6.078125 -3.921875 4.75 -5.859375 4.75 -8.296875 C 4.75 -10.023438 5.359375 -11.609375 6.578125 -13.046875 C 7.796875 -14.484375 9.269531 -15.203125 11 -15.203125 C 12.4375 -15.203125 13.984375 -14.664062 15.640625 -13.59375 C 18.734375 -11.21875 22.144531 -10.03125 25.875 -10.03125 C 28.101562 -10.03125 30.222656 -10.585938 32.234375 -11.703125 C 34.253906 -12.816406 35.894531 -14.429688 37.15625 -16.546875 C 38.414062 -18.671875 39.046875 -21.097656 39.046875 -23.828125 C 39.046875 -27.710938 37.875 -30.734375 35.53125 -32.890625 C 33.195312 -35.046875 30.375 -36.125 27.0625 -36.125 C 25.625 -36.125 24.363281 -35.976562 23.28125 -35.6875 C 22.207031 -35.40625 21.566406 -35.226562 21.359375 -35.15625 C 19.484375 -34.582031 17.9375 -34.296875 16.71875 -34.296875 C 15.132812 -34.296875 13.875 -34.851562 12.9375 -35.96875 C 12.007812 -37.082031 11.546875 -38.46875 11.546875 -40.125 C 11.546875 -41.125 11.722656 -42.019531 12.078125 -42.8125 C 12.441406 -43.601562 13.050781 -44.46875 13.90625 -45.40625 L 30.625 -63.625 L 9.28125 -63.625 C 7.550781 -63.625 6.109375 -64.195312 4.953125 -65.34375 C 3.804688 -66.5 3.234375 -67.941406 3.234375 -69.671875 C 3.234375 -71.316406 3.804688 -72.695312 4.953125 -73.8125 C 6.109375 -74.925781 7.550781 -75.484375 9.28125 -75.484375 L 42.28125 -75.484375 C 44.4375 -75.484375 46.085938 -74.890625 47.234375 -73.703125 C 48.390625 -72.523438 48.96875 -70.960938 48.96875 -69.015625 C 48.96875 -67.296875 48.101562 -65.570312 46.375 -63.84375 Z M 31.921875 -47.875 "/></g></g></g><g fill="#d80e51" fill-opacity="1"><g transform="translate(224.82581, 239.168448)"><g><path d="M 31.375 -48.96875 C 35.113281 -48.96875 38.796875 -47.832031 42.421875 -45.5625 C 46.054688 -43.300781 49.023438 -40.242188 51.328125 -36.390625 C 53.628906 -32.546875 54.78125 -28.394531 54.78125 -23.9375 C 54.78125 -19.40625 53.644531 -15.21875 51.375 -11.375 C 49.113281 -7.53125 46.078125 -4.492188 42.265625 -2.265625 C 38.460938 -0.0351562 34.257812 1.078125 29.65625 1.078125 C 24.695312 1.078125 20.273438 -0.300781 16.390625 -3.0625 C 12.503906 -5.832031 9.519531 -9.460938 7.4375 -13.953125 C 5.351562 -18.453125 4.3125 -23.253906 4.3125 -28.359375 C 4.3125 -33.609375 5.226562 -39.378906 7.0625 -45.671875 C 8.894531 -51.960938 12.238281 -57.910156 17.09375 -63.515625 C 21.945312 -69.128906 28.539062 -73.117188 36.875 -75.484375 C 37.738281 -75.703125 38.566406 -75.8125 39.359375 -75.8125 C 41.234375 -75.8125 42.78125 -75.328125 44 -74.359375 C 45.21875 -73.390625 45.828125 -71.863281 45.828125 -69.78125 C 45.828125 -68.195312 45.304688 -66.8125 44.265625 -65.625 C 43.222656 -64.4375 41.84375 -63.59375 40.125 -63.09375 C 35.59375 -61.789062 31.398438 -59.484375 27.546875 -56.171875 C 23.703125 -52.867188 20.882812 -48.921875 19.09375 -44.328125 C 22.6875 -47.421875 26.78125 -48.96875 31.375 -48.96875 Z M 29.65625 -10.78125 C 33.03125 -10.78125 35.90625 -12.035156 38.28125 -14.546875 C 40.65625 -17.066406 41.84375 -20.195312 41.84375 -23.9375 C 41.84375 -27.675781 40.65625 -30.800781 38.28125 -33.3125 C 35.90625 -35.832031 33.03125 -37.09375 29.65625 -37.09375 C 26.207031 -37.09375 23.3125 -35.832031 20.96875 -33.3125 C 18.632812 -30.800781 17.46875 -27.675781 17.46875 -23.9375 C 17.46875 -20.195312 18.632812 -17.066406 20.96875 -14.546875 C 23.3125 -12.035156 26.207031 -10.78125 29.65625 -10.78125 Z M 29.65625 -10.78125 "/></g></g></g><g fill="#d80e51" fill-opacity="1"><g transform="translate(277.666358, 239.168448)"><g><path d="M 33.109375 1.078125 C 27.066406 1.078125 21.867188 -0.535156 17.515625 -3.765625 C 13.171875 -7.003906 9.882812 -11.550781 7.65625 -17.40625 C 5.425781 -23.269531 4.3125 -30.050781 4.3125 -37.75 C 4.3125 -45.4375 5.425781 -52.207031 7.65625 -58.0625 C 9.882812 -63.925781 13.171875 -68.472656 17.515625 -71.703125 C 21.867188 -74.941406 27.066406 -76.5625 33.109375 -76.5625 C 39.148438 -76.5625 44.34375 -74.941406 48.6875 -71.703125 C 53.039062 -68.472656 56.332031 -63.925781 58.5625 -58.0625 C 60.789062 -52.207031 61.90625 -45.4375 61.90625 -37.75 C 61.90625 -30.050781 60.789062 -23.269531 58.5625 -17.40625 C 56.332031 -11.550781 53.039062 -7.003906 48.6875 -3.765625 C 44.34375 -0.535156 39.148438 1.078125 33.109375 1.078125 Z M 33.109375 -11.859375 C 37.710938 -11.859375 41.320312 -14.050781 43.9375 -18.4375 C 46.5625 -22.820312 47.875 -29.257812 47.875 -37.75 C 47.875 -46.226562 46.5625 -52.660156 43.9375 -57.046875 C 41.320312 -61.429688 37.710938 -63.625 33.109375 -63.625 C 28.503906 -63.625 24.890625 -61.429688 22.265625 -57.046875 C 19.640625 -52.660156 18.328125 -46.226562 18.328125 -37.75 C 18.328125 -29.257812 19.640625 -22.820312 22.265625 -18.4375 C 24.890625 -14.050781 28.503906 -11.859375 33.109375 -11.859375 Z M 33.109375 -11.859375 "/></g></g></g><g clip-path="url(#5fb9ec2bc7)"><path fill="#d80e51" d="M 11.570312 148.621094 C 27.78125 148.621094 41.40625 153.121094 45.363281 159.222656 C 50.6875 154.90625 68.804688 151.730469 90.347656 151.730469 C 112.011719 151.730469 130.21875 154.945312 135.425781 159.296875 C 139.320312 153.15625 152.996094 148.621094 169.269531 148.621094 C 173.144531 148.621094 176.867188 148.878906 180.347656 149.355469 C 166.664062 112.949219 131.539062 87.03125 90.347656 87.03125 C 49.148438 87.03125 14.023438 112.957031 0.339844 149.375 C 3.867188 148.890625 7.640625 148.621094 11.570312 148.621094 Z M 11.570312 148.621094 " fill-opacity="1" fill-rule="nonzero"/></g><g clip-path="url(#3ed6999e63)"><path fill="#b2023a" d="M 135.484375 159.34375 C 130.347656 117.773438 112.089844 87.03125 90.347656 87.03125 C 68.609375 87.03125 50.347656 117.773438 45.210938 159.34375 C 50.347656 154.964844 68.609375 151.730469 90.347656 151.730469 C 112.089844 151.730469 130.347656 154.964844 135.484375 159.34375 Z M 135.484375 159.34375 " fill-opacity="1" fill-rule="nonzero"/></g><g clip-path="url(#e90c224d3a)"><g clip-path="url(#b4de26f069)"><path stroke-linecap="butt" transform="matrix(0.75, 0, 0, 0.75, 330.833332, 148.462519)" fill="none" stroke-linejoin="miter" d="M 14.467016 -0.00210873 C 6.477432 -0.00210873 -0.00173483 6.477058 -0.00173483 14.466642 C -0.00173483 22.461434 6.477432 28.935393 14.467016 28.935393 C 22.461808 28.935393 28.935767 22.461434 28.935767 14.466642 C 28.935767 6.477058 22.461808 -0.00210873 14.467016 -0.00210873 Z M 14.467016 -0.00210873 " stroke="#df0e51" stroke-width="10" stroke-opacity="1" stroke-miterlimit="4"/></g></g><g fill="#d80e51" fill-opacity="1"><g transform="translate(65.392186, 278.46735)"><g><path d="M 18.4375 -4.6875 C 19.132812 -4.6875 19.710938 -4.460938 20.171875 -4.015625 C 20.640625 -3.578125 20.875 -3.007812 20.875 -2.3125 C 20.875 -1.644531 20.640625 -1.09375 20.171875 -0.65625 C 19.710938 -0.21875 19.132812 0 18.4375 0 L 5.4375 0 C 4.75 0 4.171875 -0.234375 3.703125 -0.703125 C 3.234375 -1.171875 3 -1.75 3 -2.4375 L 3 -25.5625 C 3 -26.25 3.238281 -26.828125 3.71875 -27.296875 C 4.195312 -27.765625 4.8125 -28 5.5625 -28 C 6.226562 -28 6.800781 -27.765625 7.28125 -27.296875 C 7.757812 -26.828125 8 -26.25 8 -25.5625 L 8 -4.6875 Z M 18.4375 -4.6875 "/></g></g></g><g fill="#d80e51" fill-opacity="1"><g transform="translate(94.669945, 278.46735)"><g><path d="M 21.796875 -11.203125 C 21.773438 -10.554688 21.519531 -10.035156 21.03125 -9.640625 C 20.550781 -9.242188 19.992188 -9.046875 19.359375 -9.046875 L 6.15625 -9.046875 C 6.476562 -7.472656 7.210938 -6.238281 8.359375 -5.34375 C 9.503906 -4.445312 10.796875 -4 12.234375 -4 C 13.328125 -4 14.179688 -4.097656 14.796875 -4.296875 C 15.410156 -4.492188 15.894531 -4.707031 16.25 -4.9375 C 16.613281 -5.164062 16.863281 -5.320312 17 -5.40625 C 17.476562 -5.644531 17.929688 -5.765625 18.359375 -5.765625 C 18.921875 -5.765625 19.398438 -5.5625 19.796875 -5.15625 C 20.203125 -4.757812 20.40625 -4.296875 20.40625 -3.765625 C 20.40625 -3.046875 20.03125 -2.390625 19.28125 -1.796875 C 18.53125 -1.179688 17.53125 -0.660156 16.28125 -0.234375 C 15.03125 0.191406 13.765625 0.40625 12.484375 0.40625 C 10.242188 0.40625 8.289062 -0.0625 6.625 -1 C 4.957031 -1.9375 3.671875 -3.222656 2.765625 -4.859375 C 1.859375 -6.492188 1.40625 -8.34375 1.40625 -10.40625 C 1.40625 -12.695312 1.882812 -14.707031 2.84375 -16.4375 C 3.800781 -18.175781 5.066406 -19.503906 6.640625 -20.421875 C 8.210938 -21.335938 9.894531 -21.796875 11.6875 -21.796875 C 13.4375 -21.796875 15.09375 -21.316406 16.65625 -20.359375 C 18.21875 -19.398438 19.460938 -18.109375 20.390625 -16.484375 C 21.328125 -14.859375 21.796875 -13.097656 21.796875 -11.203125 Z M 11.6875 -17.40625 C 8.59375 -17.40625 6.765625 -15.953125 6.203125 -13.046875 L 16.6875 -13.046875 L 16.6875 -13.3125 C 16.570312 -14.4375 16.019531 -15.398438 15.03125 -16.203125 C 14.050781 -17.003906 12.9375 -17.40625 11.6875 -17.40625 Z M 11.6875 -17.40625 "/></g></g></g><g fill="#d80e51" fill-opacity="1"><g transform="translate(124.667639, 278.46735)"><g><path d="M 12.921875 -4.515625 C 13.296875 -4.515625 13.632812 -4.332031 13.9375 -3.96875 C 14.25 -3.613281 14.40625 -3.144531 14.40625 -2.5625 C 14.40625 -1.84375 14.007812 -1.234375 13.21875 -0.734375 C 12.4375 -0.242188 11.550781 0 10.5625 0 C 8.90625 0 7.507812 -0.351562 6.375 -1.0625 C 5.25 -1.769531 4.6875 -3.269531 4.6875 -5.5625 L 4.6875 -16.59375 L 2.84375 -16.59375 C 2.195312 -16.59375 1.660156 -16.804688 1.234375 -17.234375 C 0.804688 -17.660156 0.59375 -18.195312 0.59375 -18.84375 C 0.59375 -19.457031 0.804688 -19.96875 1.234375 -20.375 C 1.660156 -20.789062 2.195312 -21 2.84375 -21 L 4.6875 -21 L 4.6875 -23.5625 C 4.6875 -24.25 4.914062 -24.828125 5.375 -25.296875 C 5.84375 -25.765625 6.425781 -26 7.125 -26 C 7.789062 -26 8.347656 -25.765625 8.796875 -25.296875 C 9.253906 -24.828125 9.484375 -24.25 9.484375 -23.5625 L 9.484375 -21 L 12.3125 -21 C 12.957031 -21 13.492188 -20.785156 13.921875 -20.359375 C 14.347656 -19.929688 14.5625 -19.398438 14.5625 -18.765625 C 14.5625 -18.148438 14.347656 -17.632812 13.921875 -17.21875 C 13.492188 -16.800781 12.957031 -16.59375 12.3125 -16.59375 L 9.484375 -16.59375 L 9.484375 -5.765625 C 9.484375 -5.203125 9.628906 -4.789062 9.921875 -4.53125 C 10.210938 -4.28125 10.613281 -4.15625 11.125 -4.15625 C 11.332031 -4.15625 11.625 -4.207031 12 -4.3125 C 12.320312 -4.445312 12.628906 -4.515625 12.921875 -4.515625 Z M 12.921875 -4.515625 "/></g></g></g><g fill="#d80e51" fill-opacity="1"><g transform="translate(147.826011, 278.46735)"><g><path d="M 1.359375 -3.3125 C 1.117188 -3.632812 1 -4.035156 1 -4.515625 C 1 -5.210938 1.347656 -5.800781 2.046875 -6.28125 C 2.410156 -6.519531 2.796875 -6.640625 3.203125 -6.640625 C 3.765625 -6.640625 4.296875 -6.382812 4.796875 -5.875 C 5.597656 -5.050781 6.429688 -4.4375 7.296875 -4.03125 C 8.160156 -3.632812 9.207031 -3.4375 10.4375 -3.4375 C 12.519531 -3.519531 13.5625 -4.304688 13.5625 -5.796875 C 13.5625 -6.566406 13.207031 -7.148438 12.5 -7.546875 C 11.789062 -7.953125 10.691406 -8.359375 9.203125 -8.765625 C 7.648438 -9.191406 6.382812 -9.617188 5.40625 -10.046875 C 4.4375 -10.472656 3.597656 -11.117188 2.890625 -11.984375 C 2.191406 -12.847656 1.84375 -14.015625 1.84375 -15.484375 C 1.84375 -16.765625 2.207031 -17.875 2.9375 -18.8125 C 3.675781 -19.757812 4.632812 -20.492188 5.8125 -21.015625 C 7 -21.535156 8.257812 -21.796875 9.59375 -21.796875 C 10.957031 -21.796875 12.316406 -21.539062 13.671875 -21.03125 C 15.035156 -20.53125 16.101562 -19.785156 16.875 -18.796875 C 17.226562 -18.367188 17.40625 -17.890625 17.40625 -17.359375 C 17.40625 -16.742188 17.148438 -16.238281 16.640625 -15.84375 C 16.265625 -15.550781 15.835938 -15.40625 15.359375 -15.40625 C 14.773438 -15.40625 14.296875 -15.585938 13.921875 -15.953125 C 13.441406 -16.546875 12.820312 -17.015625 12.0625 -17.359375 C 11.300781 -17.703125 10.441406 -17.875 9.484375 -17.875 C 7.453125 -17.875 6.4375 -17.144531 6.4375 -15.6875 C 6.4375 -15.09375 6.625 -14.613281 7 -14.25 C 7.375 -13.894531 7.847656 -13.617188 8.421875 -13.421875 C 8.992188 -13.222656 9.800781 -12.976562 10.84375 -12.6875 C 12.28125 -12.28125 13.476562 -11.863281 14.4375 -11.4375 C 15.394531 -11.007812 16.207031 -10.351562 16.875 -9.46875 C 17.539062 -8.59375 17.875 -7.4375 17.875 -6 C 17.875 -4.695312 17.488281 -3.554688 16.71875 -2.578125 C 15.945312 -1.609375 14.953125 -0.867188 13.734375 -0.359375 C 12.523438 0.148438 11.28125 0.40625 10 0.40625 C 8.238281 0.40625 6.597656 0.113281 5.078125 -0.46875 C 3.554688 -1.0625 2.316406 -2.007812 1.359375 -3.3125 Z M 1.359375 -3.3125 "/></g></g></g><g fill="#d80e51" fill-opacity="1"><g transform="translate(173.904096, 278.46735)"><g><path d="M 22.59375 -26.640625 C 23.425781 -26.210938 23.84375 -25.53125 23.84375 -24.59375 C 23.84375 -24.039062 23.640625 -23.492188 23.234375 -22.953125 C 22.804688 -22.398438 22.257812 -22.125 21.59375 -22.125 C 21.144531 -22.125 20.691406 -22.242188 20.234375 -22.484375 C 18.929688 -23.097656 17.519531 -23.40625 16 -23.40625 C 14.132812 -23.40625 12.507812 -23.007812 11.125 -22.21875 C 9.738281 -21.4375 8.671875 -20.332031 7.921875 -18.90625 C 7.171875 -17.476562 6.796875 -15.84375 6.796875 -14 C 6.796875 -10.851562 7.640625 -8.46875 9.328125 -6.84375 C 11.023438 -5.21875 13.25 -4.40625 16 -4.40625 C 17.625 -4.40625 19.035156 -4.707031 20.234375 -5.3125 C 20.710938 -5.53125 21.140625 -5.640625 21.515625 -5.640625 C 22.210938 -5.640625 22.800781 -5.347656 23.28125 -4.765625 C 23.675781 -4.253906 23.875 -3.707031 23.875 -3.125 C 23.875 -2.695312 23.765625 -2.304688 23.546875 -1.953125 C 23.335938 -1.609375 23.035156 -1.34375 22.640625 -1.15625 C 20.554688 -0.113281 18.34375 0.40625 16 0.40625 C 13.382812 0.40625 10.984375 -0.144531 8.796875 -1.25 C 6.609375 -2.363281 4.859375 -4 3.546875 -6.15625 C 2.242188 -8.320312 1.59375 -10.9375 1.59375 -14 C 1.59375 -16.71875 2.210938 -19.15625 3.453125 -21.3125 C 4.691406 -23.476562 6.40625 -25.164062 8.59375 -26.375 C 10.78125 -27.59375 13.25 -28.203125 16 -28.203125 C 18.375 -28.203125 20.570312 -27.679688 22.59375 -26.640625 Z M 22.59375 -26.640625 "/></g></g></g><g fill="#d80e51" fill-opacity="1"><g transform="translate(205.7816, 278.46735)"><g><path d="M 23.15625 -10.6875 C 23.15625 -8.550781 22.675781 -6.632812 21.71875 -4.9375 C 20.757812 -3.25 19.445312 -1.9375 17.78125 -1 C 16.113281 -0.0625 14.28125 0.40625 12.28125 0.40625 C 10.25 0.40625 8.40625 -0.0625 6.75 -1 C 5.101562 -1.9375 3.800781 -3.25 2.84375 -4.9375 C 1.882812 -6.632812 1.40625 -8.550781 1.40625 -10.6875 C 1.40625 -12.8125 1.882812 -14.71875 2.84375 -16.40625 C 3.800781 -18.101562 5.101562 -19.425781 6.75 -20.375 C 8.40625 -21.320312 10.25 -21.796875 12.28125 -21.796875 C 14.28125 -21.796875 16.113281 -21.320312 17.78125 -20.375 C 19.445312 -19.425781 20.757812 -18.101562 21.71875 -16.40625 C 22.675781 -14.71875 23.15625 -12.8125 23.15625 -10.6875 Z M 18.359375 -10.6875 C 18.359375 -11.988281 18.082031 -13.148438 17.53125 -14.171875 C 16.988281 -15.203125 16.253906 -16 15.328125 -16.5625 C 14.410156 -17.125 13.394531 -17.40625 12.28125 -17.40625 C 11.15625 -17.40625 10.132812 -17.125 9.21875 -16.5625 C 8.300781 -16 7.566406 -15.203125 7.015625 -14.171875 C 6.472656 -13.148438 6.203125 -11.988281 6.203125 -10.6875 C 6.203125 -9.375 6.472656 -8.210938 7.015625 -7.203125 C 7.566406 -6.191406 8.300781 -5.40625 9.21875 -4.84375 C 10.132812 -4.28125 11.15625 -4 12.28125 -4 C 13.394531 -4 14.410156 -4.28125 15.328125 -4.84375 C 16.253906 -5.40625 16.988281 -6.191406 17.53125 -7.203125 C 18.082031 -8.210938 18.359375 -9.375 18.359375 -10.6875 Z M 18.359375 -10.6875 "/></g></g></g><g fill="#d80e51" fill-opacity="1"><g transform="translate(237.139154, 278.46735)"><g><path d="M 19.046875 -21.359375 C 19.679688 -21.359375 20.210938 -21.148438 20.640625 -20.734375 C 21.066406 -20.328125 21.28125 -19.816406 21.28125 -19.203125 C 21.28125 -18.878906 21.171875 -18.476562 20.953125 -18 L 13.484375 -1.515625 C 13.296875 -1.066406 13.019531 -0.707031 12.65625 -0.4375 C 12.300781 -0.175781 11.894531 -0.03125 11.4375 0 L 11.078125 0.046875 C 10.628906 0.046875 10.207031 -0.09375 9.8125 -0.375 C 9.425781 -0.65625 9.128906 -1.035156 8.921875 -1.515625 L 1.484375 -18 C 1.296875 -18.425781 1.203125 -18.851562 1.203125 -19.28125 C 1.203125 -19.8125 1.425781 -20.296875 1.875 -20.734375 C 2.332031 -21.179688 2.894531 -21.40625 3.5625 -21.40625 C 4.0625 -21.40625 4.523438 -21.269531 4.953125 -21 C 5.378906 -20.726562 5.703125 -20.351562 5.921875 -19.875 L 11.4375 -7.234375 L 16.921875 -19.84375 C 17.128906 -20.34375 17.421875 -20.726562 17.796875 -21 C 18.171875 -21.269531 18.585938 -21.390625 19.046875 -21.359375 Z M 19.046875 -21.359375 "/></g></g></g><g fill="#d80e51" fill-opacity="1"><g transform="translate(266.416915, 278.46735)"><g><path d="M 21.796875 -11.203125 C 21.773438 -10.554688 21.519531 -10.035156 21.03125 -9.640625 C 20.550781 -9.242188 19.992188 -9.046875 19.359375 -9.046875 L 6.15625 -9.046875 C 6.476562 -7.472656 7.210938 -6.238281 8.359375 -5.34375 C 9.503906 -4.445312 10.796875 -4 12.234375 -4 C 13.328125 -4 14.179688 -4.097656 14.796875 -4.296875 C 15.410156 -4.492188 15.894531 -4.707031 16.25 -4.9375 C 16.613281 -5.164062 16.863281 -5.320312 17 -5.40625 C 17.476562 -5.644531 17.929688 -5.765625 18.359375 -5.765625 C 18.921875 -5.765625 19.398438 -5.5625 19.796875 -5.15625 C 20.203125 -4.757812 20.40625 -4.296875 20.40625 -3.765625 C 20.40625 -3.046875 20.03125 -2.390625 19.28125 -1.796875 C 18.53125 -1.179688 17.53125 -0.660156 16.28125 -0.234375 C 15.03125 0.191406 13.765625 0.40625 12.484375 0.40625 C 10.242188 0.40625 8.289062 -0.0625 6.625 -1 C 4.957031 -1.9375 3.671875 -3.222656 2.765625 -4.859375 C 1.859375 -6.492188 1.40625 -8.34375 1.40625 -10.40625 C 1.40625 -12.695312 1.882812 -14.707031 2.84375 -16.4375 C 3.800781 -18.175781 5.066406 -19.503906 6.640625 -20.421875 C 8.210938 -21.335938 9.894531 -21.796875 11.6875 -21.796875 C 13.4375 -21.796875 15.09375 -21.316406 16.65625 -20.359375 C 18.21875 -19.398438 19.460938 -18.109375 20.390625 -16.484375 C 21.328125 -14.859375 21.796875 -13.097656 21.796875 -11.203125 Z M 11.6875 -17.40625 C 8.59375 -17.40625 6.765625 -15.953125 6.203125 -13.046875 L 16.6875 -13.046875 L 16.6875 -13.3125 C 16.570312 -14.4375 16.019531 -15.398438 15.03125 -16.203125 C 14.050781 -17.003906 12.9375 -17.40625 11.6875 -17.40625 Z M 11.6875 -17.40625 "/></g></g></g><g fill="#d80e51" fill-opacity="1"><g transform="translate(296.414602, 278.46735)"><g><path d="M 13.71875 -21.796875 C 14.519531 -21.796875 15.191406 -21.566406 15.734375 -21.109375 C 16.285156 -20.660156 16.5625 -20.128906 16.5625 -19.515625 C 16.5625 -18.691406 16.347656 -18.070312 15.921875 -17.65625 C 15.492188 -17.25 14.988281 -17.046875 14.40625 -17.046875 C 14 -17.046875 13.546875 -17.132812 13.046875 -17.3125 C 12.960938 -17.34375 12.78125 -17.394531 12.5 -17.46875 C 12.21875 -17.550781 11.914062 -17.59375 11.59375 -17.59375 C 10.90625 -17.59375 10.238281 -17.378906 9.59375 -16.953125 C 8.957031 -16.523438 8.429688 -15.878906 8.015625 -15.015625 C 7.609375 -14.148438 7.40625 -13.117188 7.40625 -11.921875 L 7.40625 -2.4375 C 7.40625 -1.75 7.175781 -1.171875 6.71875 -0.703125 C 6.269531 -0.234375 5.695312 0 5 0 C 4.300781 0 3.722656 -0.234375 3.265625 -0.703125 C 2.816406 -1.171875 2.59375 -1.75 2.59375 -2.4375 L 2.59375 -18.953125 C 2.59375 -19.648438 2.816406 -20.234375 3.265625 -20.703125 C 3.722656 -21.171875 4.300781 -21.40625 5 -21.40625 C 5.695312 -21.40625 6.269531 -21.171875 6.71875 -20.703125 C 7.175781 -20.234375 7.40625 -19.648438 7.40625 -18.953125 L 7.40625 -18.4375 C 8.007812 -19.53125 8.882812 -20.363281 10.03125 -20.9375 C 11.1875 -21.507812 12.414062 -21.796875 13.71875 -21.796875 Z M 13.71875 -21.796875 "/></g></g></g></svg>